<?xml version="1.0" encoding="UTF-8"?> <svg xmlns="http://www.w3.org/2000/svg" width="88" height="88" viewBox="0 0 88 88" fill="none"><g opacity="0.15"><rect width="88" height="88" rx="44" fill="#A25EB5"></rect></g><g clip-path="url(#clip0_17864_22240)"><path d="M37.5 29.5V49.5" stroke="#A25EB5" stroke-miterlimit="10" stroke-linecap="round" stroke-linejoin="round"></path><path d="M67.5 29.5H20.5" stroke="#A25EB5" stroke-miterlimit="10" stroke-linecap="round" stroke-linejoin="round"></path><path d="M67.5 52.5V28.5C67.5 26.84 66.16 25.5 64.5 25.5H23.5C21.84 25.5 20.5 26.84 20.5 28.5V52.5C20.5 54.16 21.84 55.5 23.5 55.5H64.5C66.16 55.5 67.5 54.16 67.5 52.5Z" stroke="#A25EB5" stroke-miterlimit="10" stroke-linecap="round" stroke-linejoin="round"></path><path d="M20.5 50.5H67.5" stroke="#A25EB5" stroke-miterlimit="10" stroke-linecap="round" stroke-linejoin="round"></path><path d="M36.6601 55.49C36.6601 55.49 36.4601 59.37 33.3501 59.37" stroke="#A25EB5" stroke-miterlimit="10" stroke-linecap="round" stroke-linejoin="round"></path><path d="M41.5 35.5H62.5" stroke="#A25EB5" stroke-miterlimit="10" stroke-linecap="round" stroke-linejoin="round"></path><path d="M24.5 35.5H32.5" stroke="#A25EB5" stroke-miterlimit="10" stroke-linecap="round" stroke-linejoin="round"></path><path d="M24.5 38.5H32.5" stroke="#A25EB5" stroke-miterlimit="10" stroke-linecap="round" stroke-linejoin="round"></path><path d="M41.5 39.5H62.5" stroke="#A25EB5" stroke-miterlimit="10" stroke-linecap="round" stroke-linejoin="round"></path><path d="M41.5 43.5H62.5" stroke="#A25EB5" stroke-miterlimit="10" stroke-linecap="round" stroke-linejoin="round"></path><path d="M54.43 59.5L56.27 62.5H30.78L32.62 59.5H54.43Z" stroke="#A25EB5" stroke-miterlimit="10" stroke-linecap="round" stroke-linejoin="round"></path><path d="M50.5 55.49C50.5 55.49 50.7 59.37 53.81 59.37" stroke="#A25EB5" stroke-miterlimit="10" stroke-linecap="round" stroke-linejoin="round"></path></g><defs><clipPath id="clip0_17864_22240"><rect width="48" height="38" fill="white" transform="translate(20 25)"></rect></clipPath></defs></svg> 